<?xml version="1.0" encoding="utf-8"?>
<!-- Generator: Adobe Illustrator 20.0.0, SVG Export Plug-In . SVG Version: 6.00 Build 0)  -->
<svg version="1.1" id="Layer_1" xmlns="http://www.w3.org/2000/svg" xmlns:xlink="http://www.w3.org/1999/xlink" x="0px" y="0px"
	 viewBox="0 0 90 125" style="enable-background:new 0 0 90 125;" xml:space="preserve">
<style type="text/css">
	.st0{fill:#010101;}
	.st1{fill:#020202;}
</style>
<g>
	<path class="st0" d="M79.1,52.4L79,52.2l0,0l-0.1,0l-6.6-5.8V26.3v-0.9l-0.7-0.7L58.2,11.3l-0.7-0.7h-0.9H20.8
		c-1.8,0-3.4,0.7-4.7,2c-1.3,1.3-2,3-2,4.7v29l-6.6,5.8l-0.1,0l-0.1,0.1c-1.5,1.5-2.2,3.1-2.2,4.9V91c0,3.7,3,6.7,6.7,6.7h62.6
		c3.7,0,6.7-3,6.7-6.7V57.2C81.2,54.3,79.8,52.9,79.1,52.4z M47.2,72.8c-2.4-1.6-5.5-1.6-7.8,0l-0.5,0.4l-3.8-2.4h16.6l-3.8,2.3
		L47.2,72.8z M55.2,68.6H31.3L24,64.1h38.5L55.2,68.6z M23.1,61.9v1.7l-6.7-4.1V47.3v-30c0-1.1,0.4-2.2,1.3-3.1
		c0.9-0.9,2-1.3,3.1-1.3h35.3v13.8H70v20.7v12.1l-6.7,4.1v-1.7H23.1z M57.3,13.5l12,12h-12V13.5z M7.4,57.2c0-0.6,0.2-1.2,0.4-1.7
		l30,18.3L8.5,93.8c-0.6-0.8-1-1.8-1-2.8V57.2z M11.9,95.4c-1,0-1.9-0.3-2.6-0.8L40,73.7c2-1.4,4.6-1.4,6.6,0l30.6,20.8
		c-0.7,0.5-1.6,0.8-2.6,0.8H11.9z M79,91c0,1.1-0.4,2.1-1.1,2.9l-29.2-20l30-18.4c0.2,0.4,0.3,1,0.3,1.7V91z"/>
	<rect x="23.1" y="41.8" class="st0" width="40.3" height="2.2"/>
	<rect x="23.1" y="48.5" class="st0" width="40.3" height="2.2"/>
	<rect x="23.1" y="55.2" class="st0" width="40.3" height="2.2"/>
</g>
<path class="st1" d="M29.2,20.8c0.1,0.3,0.2,0.4,0.4,0.6c0.2,0.1,0.3,0.1,0.5,0.1c0.2-0.1,0.3-0.2,0.4-0.4c0-0.2,0-0.4-0.1-0.7l0,0
	c-0.1-0.3-0.2-0.4-0.4-0.5s-0.3-0.1-0.5-0.1c-0.2,0.1-0.3,0.2-0.4,0.4C29.1,20.3,29.1,20.5,29.2,20.8L29.2,20.8z"/>
<path class="st1" d="M32.1,17c-5.3,0-9.5,4.2-9.5,9.5s4.2,9.5,9.5,9.5s9.5-4.2,9.5-9.5S37.4,17,32.1,17z M34,19.4l0.1-0.3l1.9,0.8
	l-0.3,0.7l-0.4-0.2l0.1-0.3l-0.7-0.3l-0.3,0.7l0.8,0.3L35,21.2l-0.7-0.4L34,21.5l0.2,0.2L34.1,22l-1-0.4l0.1-0.3l0.3,0.1l0.7-1.7
	L34,19.4z M31.2,21.1h0.3l0.1-1.9l-0.3-0.1v-0.3l2.1,0.1v0.7H33v-0.3h-0.8V20h0.9v0.4h-0.9v0.7l0.3,0.1v0.3h-1.1L31.2,21.1z
	 M28.7,20c0.1-0.3,0.3-0.5,0.7-0.6c0.3-0.1,0.6-0.1,0.9,0c0.3,0.2,0.5,0.4,0.6,0.8l0,0c0.1,0.4,0.1,0.7,0,1s-0.3,0.5-0.7,0.6
	c-0.3,0.1-0.6,0.1-0.9,0s-0.5-0.4-0.6-0.8l0,0C28.6,20.6,28.6,20.3,28.7,20z M27.8,23.2c-0.3,0-0.6-0.2-0.9-0.4v-0.1
	c-0.3-0.3-0.4-0.6-0.4-0.9c0-0.3,0.1-0.6,0.4-0.9c0.1-0.1,0.3-0.2,0.5-0.3s0.3-0.1,0.5-0.1l0.4,0.4l-0.4,0.3L27.6,21
	c-0.1,0-0.1,0-0.2,0c-0.1,0-0.2,0.1-0.2,0.2C27,21.4,27,21.5,27,21.7s0.1,0.4,0.3,0.6l0.1,0.1c0.2,0.2,0.4,0.3,0.6,0.3
	c0.2,0,0.4,0,0.5-0.2c0.1-0.1,0.1-0.1,0.2-0.2c0-0.1,0.1-0.2,0.1-0.2l-0.4-0.3l0.3-0.3l0.4,0.4c0,0.2,0,0.3-0.1,0.5
	s-0.2,0.3-0.3,0.5C28.4,23.1,28.1,23.2,27.8,23.2z M32.1,29.7c-1.8,0-3.2-1.4-3.2-3.2s1.4-3.2,3.2-3.2c1.8,0,3.2,1.4,3.2,3.2
	C35.3,28.3,33.8,29.7,32.1,29.7z M37.6,22.2l-0.3-0.3l0.2-0.2l-0.6-0.6l-0.5,0.5l0.6,0.6l-0.3,0.3l-0.6-0.6l-0.5,0.5l0.6,0.6
	l0.2-0.2l0.3,0.3l-0.5,0.5l-1.5-1.4l0.2-0.2l0.2,0.2l1.3-1.3l-0.2-0.2l0.2-0.2l0.2,0.2l1.3,1.2L37.6,22.2z"/>
</svg>
