<?xml version="1.0" encoding="utf-8"?>
<!-- Generator: Adobe Illustrator 20.0.0, SVG Export Plug-In . SVG Version: 6.00 Build 0)  -->
<svg version="1.1" id="Layer_1" xmlns="http://www.w3.org/2000/svg" xmlns:xlink="http://www.w3.org/1999/xlink" x="0px" y="0px"
	 viewBox="0 0 90 125" style="enable-background:new 0 0 90 125;" xml:space="preserve">
<style type="text/css">
	.st0{fill:#010101;}
</style>
<path class="st0" d="M84.8,55.6l-0.1-0.2h-0.1l-7.1-6.2l-0.1-31.4c0-1.8-0.8-3.7-2.2-5.1c-1.4-1.4-3.1-2.2-5.1-2.2H58.8H33.4H22
	c-1.9,0-3.7,0.8-5.1,2.2c-1.4,1.4-2.2,3.2-2.2,5.1v31.2l-7.1,6.2H7.6l-0.1,0.1c-1.6,1.6-2.4,3.3-2.4,5.3v36.5c0,4,3.2,7.2,7.2,7.2
	h67.5c4,0,7.2-3.2,7.2-7.2V60.8C87.1,57.7,85.6,56.2,84.8,55.6z M17.3,17.8c0-1.2,0.4-2.4,1.4-3.3c1-1,2.2-1.4,3.3-1.4h11.2H59h11.2
	c1.2,0,2.4,0.4,3.3,1.4c1,1,1.4,2.2,1.4,3.3L75,63.3l-7.2,4.4v-1.8H24.5v1.8l-7.2-4.4V17.8z M33.3,73.1l-7.9-4.8H67l-7.9,4.8H33.3z
	 M55.3,75.5l-4.1,2.5l-0.8-0.3c-2.6-1.7-5.9-1.7-8.4,0l-0.5,0.4l-4.1-2.6H55.3z M7.7,97.2V60.8H7.6c0-0.6,0.2-1.3,0.4-1.8l32.3,19.7
	L8.8,100.3C8.1,99.4,7.7,98.3,7.7,97.2z M80,101.9H12.4v0.1c-1.1,0-2-0.3-2.8-0.9l33.1-22.5c2.2-1.5,5-1.5,7.1,0l33,22.4
	C82,101.5,81.1,101.9,80,101.9z M84.7,97.2c0,1.2-0.4,2.3-1.2,3.1L52.1,78.8L84.4,59c0.2,0.4,0.3,1.1,0.3,1.8V97.2z"/>
<circle cx="20.9" cy="18" r="1.5"/>
<circle cx="25.5" cy="18" r="1.5"/>
<circle cx="30" cy="18" r="1.5"/>
<rect x="19.4" y="21.2" width="9.6" height="1.9"/>
<rect x="44.3" y="51" width="13.1" height="1.5"/>
<rect x="44.3" y="55.5" width="27.6" height="1.5"/>
<rect x="44.3" y="60.1" width="27.6" height="1.5"/>
<path d="M19.4,61.6h20.9V51H19.4V61.6z M20.3,51.7h19.1v9.1H20.3V51.7z"/>
<g>
	<path class="st0" d="M26.9,30.9c0.1,0.3,0.2,0.4,0.4,0.6c0.2,0.1,0.3,0.1,0.5,0.1c0.2-0.1,0.3-0.2,0.4-0.4c0-0.2,0-0.4-0.1-0.8l0,0
		c-0.1-0.3-0.2-0.4-0.4-0.5s-0.3-0.1-0.5-0.1c-0.2,0.1-0.3,0.2-0.4,0.4C26.8,30.4,26.8,30.6,26.9,30.9L26.9,30.9z"/>
	<path class="st0" d="M30,26.8c-5.7,0-10.2,4.5-10.2,10.2S24.3,47.3,30,47.3S40.3,42.8,40.3,37S35.7,26.8,30,26.8z M32.1,29.4
		l0.1-0.3l2,0.9l-0.3,0.8l-0.4-0.2l0.1-0.3l-0.8-0.3l-0.3,0.8l0.9,0.3l-0.2,0.4l-0.8-0.4l-0.3,0.8l0.2,0.2l-0.1,0.3l-1.1-0.4
		l0.1-0.3l0.3,0.1l0.8-1.8L32.1,29.4z M29.1,31.2h0.3l0.1-2l-0.3-0.1v-0.3l2.3,0.1v0.8H31v-0.3h-0.9V30h1v0.4h-1v0.8l0.3,0.1v0.3
		h-1.2L29.1,31.2z M26.4,30c0.1-0.3,0.3-0.5,0.8-0.6c0.3-0.1,0.6-0.1,1,0c0.3,0.2,0.5,0.4,0.6,0.9l0,0c0.1,0.4,0.1,0.8,0,1.1
		c-0.1,0.3-0.3,0.5-0.8,0.6c-0.3,0.1-0.6,0.1-1,0c-0.3-0.1-0.5-0.4-0.6-0.9l0,0C26.3,30.7,26.3,30.4,26.4,30z M25.4,33.5
		c-0.3,0-0.6-0.2-1-0.4V33c-0.3-0.3-0.4-0.6-0.4-1c0-0.3,0.1-0.6,0.4-1c0.1-0.1,0.3-0.2,0.5-0.3c0.2-0.1,0.3-0.1,0.5-0.1l0.4,0.4
		l-0.4,0.3l-0.3-0.2c-0.1,0-0.1,0-0.2,0c-0.1,0-0.2,0.1-0.2,0.2c-0.2,0.2-0.2,0.3-0.2,0.5c0,0.2,0.1,0.4,0.3,0.6l0.1,0.1
		c0.2,0.2,0.4,0.3,0.6,0.3c0.2,0,0.4,0,0.5-0.2c0.1-0.1,0.1-0.1,0.2-0.2c0-0.1,0.1-0.2,0.1-0.2L26.1,32l0.3-0.3l0.4,0.4
		c0,0.2,0,0.3-0.1,0.5c-0.1,0.2-0.2,0.3-0.3,0.5C26.1,33.4,25.7,33.5,25.4,33.5z M30,40.5c-1.9,0-3.4-1.5-3.4-3.4s1.5-3.4,3.4-3.4
		s3.4,1.5,3.4,3.4C33.5,39,31.9,40.5,30,40.5z M36,32.4l-0.3-0.3l0.2-0.2l-0.6-0.6l-0.5,0.5l0.6,0.6L35,32.7l-0.6-0.6l-0.5,0.5
		l0.6,0.6l0.2-0.2l0.3,0.3l-0.5,0.5l-1.6-1.5l0.2-0.2l0.2,0.2l1.4-1.4l-0.2-0.2l0.2-0.2l0.2,0.2l1.4,1.3L36,32.4z"/>
</g>
<rect x="44.3" y="30.8" width="13.1" height="1.5"/>
<rect x="44.3" y="35.4" width="27.6" height="1.5"/>
<rect x="44.3" y="39.9" width="27.6" height="1.5"/>
<rect x="44.3" y="21.2" width="25.5" height="1.9"/>
</svg>
