<?xml version="1.0" encoding="utf-8"?>
<!-- Generator: Adobe Illustrator 20.0.0, SVG Export Plug-In . SVG Version: 6.00 Build 0)  -->
<svg version="1.1" id="Layer_1" xmlns="http://www.w3.org/2000/svg" xmlns:xlink="http://www.w3.org/1999/xlink" x="0px" y="0px"
	 viewBox="0 0 90 125" style="enable-background:new 0 0 90 125;" xml:space="preserve">
<style type="text/css">
	.st0{fill:#010101;}
</style>
<g>
	<path class="st0" d="M86.9,20.5l-7.3-7.3c-0.8-0.8-1.8-1.2-3-1.2c-1.1,0-2.2,0.4-3,1.2l-31,31c-0.3,0.3-0.5,0.6-0.6,1l-2.7,8
		l-2.1,6.3c-0.3,0.8-0.1,1.7,0.4,2.4c0.5,0.7,1.3,1.1,2.1,1.1c0.3,0,0.6,0,0.8-0.1l14.3-4.8c0.4-0.1,0.7-0.3,1-0.6l31-31
		c0.8-0.8,1.2-1.8,1.2-3C88.1,22.3,87.7,21.3,86.9,20.5z M65,24.1l3.3,3.3L48.3,47.3c0-0.8-0.3-1.7-0.9-2.3
		c-0.7-0.7-1.6-0.9-2.5-0.8L65,24.1z M68.8,27.9l3.2,3.2L52.1,51c0-0.8-0.3-1.6-0.9-2.2c-0.6-0.6-1.6-0.9-2.4-0.9L68.8,27.9z
		 M54.5,56.5C54.5,56.5,54.5,56.5,54.5,56.5C54.4,56.5,54.4,56.5,54.5,56.5l-8.1,2.8l-5.5-5.5l2.7-8c0-0.1,0.1-0.1,0.1-0.2l0,0
		c0.9-0.9,2.4-0.9,3.2,0c0.9,0.9,0.9,2.4,0,3.3c0,0,0,0,0,0c-0.2,0.2-0.2,0.4,0,0.6c0.2,0.2,0.4,0.2,0.6,0c0,0,0,0,0,0
		c0.9-0.9,2.4-0.9,3.2,0c0.9,0.9,0.9,2.4,0,3.3c-0.1,0.1-0.1,0.2-0.1,0.3c0,0.1,0,0.2,0.1,0.3c0.2,0.2,0.4,0.2,0.6,0
		c0.9-0.9,2.4-0.9,3.2,0C55.4,54.1,55.4,55.6,54.5,56.5z M55.9,55.2c0.1-0.9-0.2-1.9-0.9-2.5c-0.7-0.7-1.6-1-2.5-0.9l20.1-20.1
		l3.4,3.4L55.9,55.2z M76.6,34.5l-11-11l3-3l11,11L76.6,34.5z M85.8,25.3L80.1,31l-11-11l5.7-5.7c0.5-0.5,1.1-0.8,1.8-0.8
		s1.4,0.3,1.8,0.8l7.3,7.3c0.5,0.5,0.8,1.1,0.8,1.8C86.5,24.2,86.2,24.8,85.8,25.3z"/>
	<polygon class="st0" points="58.8,57.2 58.8,107.7 12.1,107.7 12.1,27.9 53,27.9 54.5,26.4 10.7,26.4 10.7,109.1 60.3,109.1 
		60.3,55.7 	"/>
	<path class="st0" d="M66.2,49.8v58.7c0,3.3-2.7,5.9-5.9,5.9H10.4c-1.6,0-3.1-0.7-4.2-1.7c-1.1-1.1-1.7-2.5-1.7-4.2V25.7
		c0-1.6,0.7-3.1,1.7-4.2c1.1-1.1,2.5-1.7,4.2-1.7h53l2.8-2.8c-0.4-0.1-0.8-0.1-1.3-0.1H10.4c-4.9,0-8.9,4-8.9,8.9v82.7
		c0,4.9,4,8.9,8.9,8.9h49.9c4.9,0,8.9-4,8.9-8.9V46.8L66.2,49.8z"/>
	<g>
		<path class="st0" d="M30.6,54.1c0.2,0.4,0.4,0.7,0.7,0.9c0.3,0.2,0.6,0.2,0.9,0.1c0.3-0.1,0.6-0.4,0.6-0.7c0.1-0.3,0-0.7-0.2-1.2
			l0-0.1c-0.2-0.4-0.4-0.7-0.7-0.9c-0.3-0.2-0.6-0.2-1-0.1c-0.3,0.1-0.5,0.4-0.6,0.7C30.3,53.3,30.3,53.6,30.6,54.1L30.6,54.1z"/>
		<path class="st0" d="M41.4,64.3c-0.2,2.7-2.4,4.9-5.2,5c-3,0.1-5.6-2.2-5.8-5.3c-0.1-3,2.2-5.6,5.3-5.8c0,0,0.1,0,0.1,0l0.8-2.4
			l2.7-8c0-0.1,0.1-0.1,0.1-0.2c-1.3-0.3-2.7-0.4-4.2-0.3c-9.3,0.4-16.2,8-15.8,17.3c0.4,9.3,8,16.2,17.3,15.8s16.2-8,15.8-17.3
			c0-0.8-0.1-1.6-0.3-2.4c0,0,0,0,0,0L41.4,64.3z M37.5,50.5l0,1.2l-0.7,0l0-0.5l-1.5,0l0,1.2l1.6,0l0,0.7l-1.6,0l0,1.2l0.5,0.1
			l0,0.5L34,55l0-0.5l0.5-0.1l0-3.2L34,51.1l0-0.5L37.5,50.5z M29.6,52.7c0.2-0.5,0.5-0.9,1.1-1.2c0.6-0.2,1.1-0.2,1.6,0
			c0.5,0.2,0.9,0.7,1.2,1.3l0,0.1c0.3,0.6,0.3,1.2,0.1,1.7c-0.2,0.5-0.5,0.9-1.1,1.2c-0.6,0.2-1.1,0.2-1.6,0
			c-0.5-0.2-0.9-0.7-1.2-1.3l0-0.1C29.4,53.8,29.4,53.3,29.6,52.7z M30.3,56.8c-0.1,0.3-0.3,0.6-0.5,0.8c-0.4,0.4-0.9,0.6-1.5,0.6
			c-0.6,0-1.1-0.2-1.6-0.7l-0.1-0.1c-0.5-0.4-0.7-1-0.8-1.5c0-0.6,0.2-1.1,0.6-1.5c0.2-0.3,0.5-0.4,0.8-0.5c0.3-0.1,0.6-0.2,0.8-0.2
			l0.6,0.6l-0.5,0.5l-0.5-0.3c-0.1,0-0.3,0-0.4,0.1c-0.1,0.1-0.3,0.2-0.4,0.3c-0.3,0.3-0.4,0.6-0.3,0.9c0.1,0.3,0.3,0.7,0.6,1
			l0.1,0.1c0.3,0.3,0.7,0.5,1,0.5c0.4,0,0.7-0.1,0.9-0.3c0.1-0.1,0.2-0.3,0.3-0.4c0.1-0.1,0.1-0.3,0.1-0.4l-0.4-0.5l0.5-0.5l0.6,0.6
			C30.4,56.3,30.4,56.5,30.3,56.8z"/>
	</g>
</g>
</svg>
