<?xml version="1.0" encoding="utf-8"?>
<!-- Generator: Adobe Illustrator 20.0.0, SVG Export Plug-In . SVG Version: 6.00 Build 0)  -->
<svg version="1.1" id="Layer_1" xmlns="http://www.w3.org/2000/svg" xmlns:xlink="http://www.w3.org/1999/xlink" x="0px" y="0px"
	 viewBox="0 0 90 125" style="enable-background:new 0 0 90 125;" xml:space="preserve">
<style type="text/css">
	.st0{fill:#020202;}
</style>
<g>
	<path class="st0" d="M41.2,28.1c0.2,0.4,0.4,0.5,0.5,0.9c0.4,0.2,0.4,0.2,0.7,0.2c0.4-0.2,0.4-0.4,0.5-0.5c0-0.4,0-0.5-0.2-1.1l0,0
		c-0.2-0.4-0.4-0.5-0.5-0.7c-0.4-0.2-0.4-0.2-0.7-0.2c-0.4,0.2-0.4,0.4-0.5,0.5C41.2,27.4,41.2,27.7,41.2,28.1L41.2,28.1z"/>
	<path class="st0" d="M45.6,22.5c-7.8,0-13.9,6.2-13.9,13.9s6.2,13.9,13.9,13.9s13.9-6.2,13.9-13.9S53.4,22.5,45.6,22.5z M48.3,26
		l0.2-0.4l2.8,1.2l-0.4,1.1l-0.5-0.4l0.2-0.4l-1.1-0.4l-0.4,1.1l1.2,0.4L50,28.8L49,28.3l-0.4,1.1l0.4,0.4L48.8,30l-1.4-0.5l0.2-0.4
		l0.4,0.2l1.1-2.5L48.3,26z M44.2,28.6h0.4l0.2-2.8l-0.4-0.2v-0.4l3,0.2v1.1h-0.5v-0.4h-1.2v1.1h1.2v0.5h-1.2v1.1L46,29v0.4h-1.6
		L44.2,28.6z M40.5,26.9c0.2-0.4,0.4-0.7,1.1-0.9c0.4-0.2,0.9-0.2,1.2,0c0.4,0.4,0.7,0.5,0.9,1.2l0,0c0.2,0.5,0.2,1.1,0,1.4
		c-0.2,0.4-0.4,0.7-1.1,0.9c-0.4,0.2-0.9,0.2-1.2,0c-0.4-0.2-0.7-0.5-0.9-1.2l0,0C40.5,27.7,40.5,27.4,40.5,26.9z M39.3,31.6
		c-0.4,0-0.9-0.4-1.2-0.5v-0.2c-0.4-0.4-0.5-0.9-0.5-1.2s0.2-0.9,0.5-1.2c0.2-0.2,0.4-0.4,0.7-0.4c0.4-0.2,0.4-0.2,0.7-0.2l0.5,0.5
		l-0.5,0.4l-0.4-0.4c-0.2,0-0.2,0-0.4,0s-0.4,0.2-0.4,0.4C38,29.2,38,29.2,38,29.5c0,0.4,0.2,0.5,0.4,0.9l0.2,0.2
		c0.4,0.4,0.5,0.4,0.9,0.4s0.5,0,0.7-0.4c0.2-0.2,0.2-0.2,0.4-0.4c0-0.2,0.2-0.4,0.2-0.4l-0.5-0.4l0.4-0.4l0.5,0.5
		c0,0.4,0,0.4-0.2,0.7c-0.2,0.4-0.4,0.4-0.4,0.7C40.2,31.4,39.6,31.6,39.3,31.6z M45.6,41.1c-2.6,0-4.8-2.1-4.8-4.8
		c0-2.6,2.1-4.8,4.8-4.8c2.6,0,4.8,2.1,4.8,4.8C50.2,39,48.1,41.1,45.6,41.1z M53.6,30.2l-0.4-0.5l0.4-0.4l-0.9-0.9L52,29.2l0.9,0.9
		l-0.4,0.4l-1.1-0.7l-0.7,0.7l0.9,0.9l0.4-0.4l0.4,0.4L51.6,32l-2.1-2.1l0.4-0.4l0.4,0.4l1.9-1.9l-0.5,0l0.4-0.4l0.4,0.4l1.9,1.8
		L53.6,30.2z"/>
</g>
<g>
	<path d="M72.3,1.9H18.9C13,1.9,8.3,6.7,8.3,12.6v99.7c0,5.9,4.8,10.7,10.7,10.7h53.4c5.9,0,10.7-4.8,10.7-10.7V12.6
		C83,6.7,78.2,1.9,72.3,1.9z M79.4,112.3c0,3.9-3.2,7.1-7.1,7.1H18.9c-3.9,0-7.1-3.2-7.1-7.1V12.6c0-3.9,3.2-7.1,7.1-7.1h53.4
		c3.9,0,7.1,3.2,7.1,7.1V112.3z"/>
	<path d="M45.6,109c-2.5,0-4.4,2-4.4,4.4s2,4.4,4.4,4.4c2.5,0,4.4-2,4.4-4.4S48.1,109,45.6,109z M45.6,116.1c-1.5,0-2.7-1.2-2.7-2.7
		s1.2-2.7,2.7-2.7s2.7,1.2,2.7,2.7S47.1,116.1,45.6,116.1z"/>
	<path d="M15.4,14.4h-1.8v1.8v89v1.8h1.8h60.5h1.8v-1.8v-89v-1.8h-1.8H15.4z M57.9,60l3.7,3.7l3.7-3.7l6.4,3.2l3.2,3.2v16.5H34
		c1.3-0.9,2.2-2.4,2.2-4.1c0-0.1,0-0.2,0-0.3l5.5-5.5l9.9-9.9L57.9,60z M62.3,93.6h-12l-3.6,10.7H30.2l-3.5-10.5l-10.5-3.5v-2h54.1
		l-6.3,2.1l4,11.9l4.1,2h-6.3L62.3,93.6z M64,104.3H48.6l3-8.9H61L64,104.3z M16.3,92.1l9.1,3l3,9.1H16.3V92.1z M75,88.6v15.1
		l-5.5-2.8l-3.2-9.5L75,88.6z M35.6,76.5c-0.8-1.6-2.5-2.8-4.5-2.8c-2.8,0-5,2.2-5,5c0,1.7,0.9,3.2,2.2,4.1h-12v-9.4l9.9-9.9
		l12.8,9.6L35.6,76.5z M75.9,16.2v48.6L61.6,50.5L46.5,65.7l0,0l-6.3,6.3L26,61.3L15.4,71.9V16.2H75.9z"/>
	<path d="M32.6,102.5h11.9l4.2-12.7l-20.4,4.1L32.6,102.5z M43.2,100.7h-9.5l-2.8-5.6l15.2-3L43.2,100.7z"/>
</g>
</svg>
