<?xml version="1.0" encoding="utf-8"?>
<!-- Generator: Adobe Illustrator 20.0.0, SVG Export Plug-In . SVG Version: 6.00 Build 0)  -->
<svg version="1.1" id="Layer_1" xmlns="http://www.w3.org/2000/svg" xmlns:xlink="http://www.w3.org/1999/xlink" x="0px" y="0px"
	 viewBox="0 0 90 125" style="enable-background:new 0 0 90 125;" xml:space="preserve">
<style type="text/css">
	.st0{fill:#010101;}
</style>
<g>
	<g>
		<path class="st0" d="M67.2,38.8v-2.1c0-1.4,0-3.6-20-3.6s-20,2.2-20,3.6v2.1c-0.9,0.4-1.8,1.2-1.8,2.4v0.2V45v1.6
			c0,1.4,1.1,2.1,2.1,2.5l3.4,40.3c0,1.3,0.3,3.6,16.3,3.6c16,0,16.3-2.3,16.3-3.6l3.4-40.3c1-0.4,2.1-1.2,2.1-2.5V45v-3.6v-0.2
			C69,40,68.1,39.3,67.2,38.8z M55.8,35.1c1,0.1,2,0.1,2.9,0.2c4,0.3,6.6,0.8,6.6,1.4v0c0,1-8.1,1.8-18.2,1.8
			c-10,0-18.2-0.8-18.2-1.8c0-1,8.1-1.8,18.2-1.8c1.9,0,3.7,0,5.4,0.1C53.7,35,54.8,35,55.8,35.1z M47.2,44c-11,0-20-1.2-20-2.7
			c0-0.1,0-0.2,0.1-0.3c0-0.1,0.1-0.1,0.2-0.2c0,0,0,0,0.1-0.1c0.1-0.1,0.3-0.2,0.5-0.3c0,0.8,1,2.6,19.1,2.6
			c18.1,0,19-1.8,19.1-2.6c0.2,0.1,0.4,0.2,0.5,0.3c0,0,0,0,0.1,0.1c0.1,0.1,0.1,0.1,0.2,0.2c0.1,0.1,0.1,0.2,0.1,0.3
			C67.2,42.7,58.2,44,47.2,44z M34.3,38.9c3.5,0.3,8.1,0.5,12.9,0.5c4.9,0,9.5-0.2,12.9-0.5c2.8-0.3,4.4-0.6,5.2-1v2.2h0v0.2
			c0,1.1-8.2,1.8-18.2,1.8S29,41.4,29,40.3v-0.2v-2.2C29.9,38.3,31.4,38.6,34.3,38.9z M29.2,47.8c-0.3-0.1-0.6-0.2-0.8-0.3
			c0,0,0,0,0,0c-0.2-0.1-0.4-0.2-0.6-0.3c0,0-0.1,0-0.1,0c-0.1-0.1-0.2-0.2-0.3-0.2c0,0,0,0-0.1-0.1c-0.1-0.1-0.1-0.2-0.1-0.3V45
			v-2.6c3.4,2.2,15.8,2.4,20,2.4s16.6-0.2,20-2.4V45v1.6c0,0.1,0,0.2-0.1,0.3c0,0,0,0-0.1,0.1c-0.1,0.1-0.2,0.2-0.3,0.2
			c0,0-0.1,0-0.1,0c-0.2,0.1-0.3,0.2-0.6,0.3c0,0,0,0,0,0c-0.2,0.1-0.5,0.2-0.8,0.3c-3.2,0.9-10,1.6-18,1.6
			C39.2,49.4,32.4,48.8,29.2,47.8z M61.7,89.4c0,1-6.5,1.8-14.5,1.8c-8,0-14.5-0.8-14.5-1.8l-3.4-40.6c5.1,1.5,15.3,1.6,17.9,1.6
			c2.6,0,12.8-0.1,17.9-1.6L61.7,89.4z"/>
		<path class="st0" d="M44.3,60c0.1,0.3,0.2,0.4,0.4,0.6c0.2,0.1,0.3,0.1,0.5,0.1c0.2-0.1,0.3-0.2,0.4-0.4c0-0.2,0-0.4-0.1-0.7l0,0
			c-0.1-0.3-0.2-0.4-0.4-0.5c-0.2-0.1-0.3-0.1-0.5-0.1c-0.2,0.1-0.3,0.2-0.4,0.4C44.2,59.5,44.2,59.7,44.3,60L44.3,60z"/>
		<path class="st0" d="M47.2,56.2c-5.3,0-9.5,4.2-9.5,9.5s4.2,9.5,9.5,9.5s9.5-4.2,9.5-9.5S52.5,56.2,47.2,56.2z M49.1,58.6l0.1-0.3
			l1.9,0.8l-0.3,0.7l-0.4-0.2l0.1-0.3L49.8,59l-0.3,0.7l0.8,0.3l-0.2,0.4L49.4,60l-0.3,0.7l0.2,0.2l-0.1,0.3l-1-0.4l0.1-0.3l0.3,0.1
			l0.7-1.7L49.1,58.6z M46.3,60.3l0.3,0l0.1-1.9l-0.3-0.1l0-0.3l2.1,0.1l0,0.7l-0.4,0l0-0.3l-0.8,0l0,0.7l0.9,0l0,0.4l-0.9,0l0,0.7
			l0.3,0.1l0,0.3l-1.1,0L46.3,60.3z M43.8,59.2c0.1-0.3,0.3-0.5,0.7-0.6c0.3-0.1,0.6-0.1,0.9,0c0.3,0.2,0.5,0.4,0.6,0.8l0,0
			c0.1,0.4,0.1,0.7,0,1c-0.1,0.3-0.3,0.5-0.7,0.6c-0.3,0.1-0.6,0.1-0.9,0s-0.5-0.4-0.6-0.8l0,0C43.7,59.8,43.7,59.5,43.8,59.2z
			 M42.9,62.4c-0.3,0-0.6-0.2-0.9-0.4L42,61.9c-0.3-0.3-0.4-0.6-0.4-0.9c0-0.3,0.1-0.6,0.4-0.9c0.1-0.1,0.3-0.2,0.5-0.3
			c0.2-0.1,0.3-0.1,0.5-0.1l0.4,0.4L43,60.4l-0.3-0.2c-0.1,0-0.1,0-0.2,0c-0.1,0-0.2,0.1-0.2,0.2c-0.2,0.2-0.2,0.3-0.2,0.5
			c0,0.2,0.1,0.4,0.3,0.6l0.1,0.1c0.2,0.2,0.4,0.3,0.6,0.3c0.2,0,0.4,0,0.5-0.2c0.1-0.1,0.1-0.1,0.2-0.2c0-0.1,0.1-0.2,0.1-0.2
			L43.5,61l0.3-0.3l0.4,0.4c0,0.2,0,0.3-0.1,0.5c-0.1,0.2-0.2,0.3-0.3,0.5C43.5,62.3,43.2,62.4,42.9,62.4z M47.2,68.9
			c-1.8,0-3.2-1.4-3.2-3.2s1.4-3.2,3.2-3.2c1.8,0,3.2,1.4,3.2,3.2S48.9,68.9,47.2,68.9z M52.7,61.4l-0.3-0.3l0.2-0.2L52,60.3
			l-0.5,0.5l0.6,0.6l-0.3,0.3l-0.6-0.6l-0.5,0.5l0.6,0.6l0.2-0.2l0.3,0.3l-0.5,0.5l-1.5-1.4l0.2-0.2l0.2,0.2l1.3-1.3l-0.2-0.2
			l0.2-0.2l0.2,0.2l1.3,1.2L52.7,61.4z"/>
	</g>
	<g>
		<path class="st0" d="M82.1,29.4L63.5,10.9L62.6,10h-1.3H16.3c-2.4,0-4.7,1-6.5,2.8C8,14.5,7,16.8,7,19.2v86.5c0,2.4,1,4.7,2.8,6.5
			c1.8,1.8,4.1,2.8,6.5,2.8h57.4c2.4,0,4.7-1,6.5-2.8c1.8-1.8,2.8-4.1,2.8-6.5V31.6v-1.3L82.1,29.4z M79.1,30.8h-17v-17L79.1,30.8z
			 M78,110.1c-1.2,1.2-2.8,1.9-4.3,1.9H16.3c-1.5,0-3.1-0.6-4.3-1.9c-1.2-1.2-1.9-2.8-1.9-4.3V19.2c0-1.5,0.6-3.1,1.9-4.3
			c1.2-1.2,2.8-1.9,4.3-1.9h44.3v19.3h19.3v73.4C79.9,107.3,79.3,108.8,78,110.1z"/>
	</g>
	<rect x="13.6" y="99.5" class="st0" width="29.9" height="3"/>
	<rect x="47.8" y="99.5" class="st0" width="29.9" height="3"/>
	<rect x="31" y="22.3" class="st0" width="30.6" height="3.1"/>
</g>
</svg>
