<?xml version="1.0" encoding="utf-8"?>
<!-- Generator: Adobe Illustrator 20.0.0, SVG Export Plug-In . SVG Version: 6.00 Build 0)  -->
<svg version="1.1" id="Layer_1" xmlns="http://www.w3.org/2000/svg" xmlns:xlink="http://www.w3.org/1999/xlink" x="0px" y="0px"
	 viewBox="0 0 90 125" style="enable-background:new 0 0 90 125;" xml:space="preserve">
<style type="text/css">
	.st0{fill:#020202;}
</style>
<g>
	<path class="st0" d="M39,48.2c0.2,0.5,0.4,0.7,0.7,1.1c0.4,0.2,0.4,0.2,0.9,0.2c0.5-0.2,0.5-0.4,0.7-0.7c0-0.4,0-0.7-0.2-1.3l0,0
		c-0.2-0.5-0.4-0.7-0.7-0.9c-0.4-0.2-0.4-0.2-0.9-0.2c-0.5,0.2-0.5,0.4-0.7,0.7C39,47.3,39,47.8,39,48.2L39,48.2z"/>
	<path class="st0" d="M44.7,41.1c-9.9,0-17.8,7.8-17.8,17.7c0,9.9,7.8,17.8,17.7,17.8s17.8-7.8,17.8-17.7
		C62.4,49,54.6,41.1,44.7,41.1z M48,45.6l0.2-0.4l3.6,1.6L51.4,48l-0.7-0.5l0.2-0.4l-1.3-0.5L49.2,48l1.6,0.5l-0.5,0.7l-1.3-0.7
		l-0.5,1.3l0.4,0.5l-0.2,0.4L46.9,50l0.2-0.4l0.4,0.2l1.4-3.1L48,45.6z M42.9,48.9l0.4,0l0.2-3.6l-0.4-0.2l0-0.4l3.8,0.2l0,1.3
		l-0.7,0l0-0.4l-1.6,0l0,1.3l1.6,0l0,0.7l-1.6,0l0,1.3l0.4,0.2l0,0.4l-2,0L42.9,48.9z M38.1,46.7c0.2-0.4,0.5-0.9,1.4-1.1
		c0.5-0.2,1.1-0.2,1.6,0c0.4,0.5,0.9,0.7,1.1,1.6l0,0c0.2,0.7,0.2,1.3,0,1.8c-0.2,0.4-0.5,0.9-1.4,1.1c-0.5,0.2-1.1,0.2-1.6,0
		c-0.4-0.2-0.9-0.7-1.1-1.6l0,0C38.1,47.8,38.1,47.3,38.1,46.7z M36.6,52.7c-0.4,0-1.1-0.5-1.6-0.7l0-0.2c-0.4-0.5-0.7-1.1-0.7-1.6
		s0.2-1.1,0.7-1.6c0.2-0.2,0.5-0.4,0.9-0.4c0.5-0.2,0.5-0.2,0.9-0.2l0.7,0.7l-0.7,0.4l-0.4-0.5c-0.2,0-0.2,0-0.4,0
		c-0.2,0-0.5,0.2-0.5,0.4C35,49.6,35,49.6,35,50c0,0.4,0.2,0.7,0.4,1.1l0.2,0.2c0.4,0.5,0.7,0.5,1.1,0.5c0.4,0,0.7,0,0.9-0.4
		c0.2-0.2,0.2-0.2,0.5-0.4c0-0.2,0.2-0.4,0.2-0.4L37.7,50l0.5-0.4l0.7,0.7c0,0.4,0,0.4-0.2,0.9c-0.2,0.4-0.5,0.4-0.5,0.9
		C37.7,52.5,37,52.7,36.6,52.7z M44.6,64.9c-3.4,0-6.1-2.7-6.1-6.1c0-3.4,2.7-6.1,6.1-6.1c3.4,0,6.1,2.7,6.1,6.1
		C50.5,62.2,47.8,64.9,44.6,64.9z M54.8,51l-0.4-0.7l0.5-0.4l-1.1-1.1l-0.9,0.9l1.1,1.1l-0.5,0.4l-1.3-0.9l-0.9,0.9l1.1,1.1l0.5-0.4
		l0.4,0.5l-0.9,0.9l-2.7-2.7l0.5-0.4l0.4,0.5L53,48l-0.7,0l0.5-0.4l0.4,0.5l2.5,2.3L54.8,51z"/>
</g>
<g>
	<path d="M81.4,20.6C80.9,20.2,68,10.5,44.6,10.5S8.4,20.2,7.8,20.6l-1.2,1v1.6v6V66v6c0,14.2,7.2,27.1,19.2,34.7l17.1,11.1l1.7,1.1
		l1.7-1.1l17.1-11.1c12-7.5,19.2-20.5,19.2-34.7v-6V29.2v-6v-1.6L81.4,20.6z M10.5,23.6c2-1.4,14.1-9.1,34.1-9.1
		c20,0,32,7.7,34.1,9.1V66c0,12.8-6.5,24.5-17.4,31.4l-16.7,10.8L27.9,97.3C17,90.5,10.5,78.8,10.5,66V23.6z M61.8,104l-17.1,11.1
		L27.5,104C17,97.4,10.6,86.3,9.9,74.1C12,84.2,18.1,93,27.1,98.7L44.6,110l17.5-11.4c9-5.7,15-14.5,17.2-24.6
		C78.7,86.3,72.3,97.4,61.8,104z"/>
	<path d="M30.3,93.3l14.4,9.2L59,93.3c9.4-5.8,15-16,15-27.3V26.2l-0.4-0.2c-8.9-4.5-18.7-6.7-28.9-6.7s-19.9,2.3-28.9,6.7l-0.4,0.2
		V66C15.3,77.3,20.9,87.5,30.3,93.3z M19.3,34.6c4.2-2.1,12.8-5.4,25.4-5.4c9.1,0,17.4,1.8,25.4,5.5V66c0,9.9-4.9,18.9-13.1,23.9
		l-12.3,7.8l-12.3-7.8c-8.2-5.1-13.1-14.1-13.1-24V34.6z"/>
</g>
</svg>
