<?xml version="1.0" encoding="utf-8"?>
<!-- Generator: Adobe Illustrator 20.0.0, SVG Export Plug-In . SVG Version: 6.00 Build 0)  -->
<svg version="1.1" id="Layer_1" xmlns="http://www.w3.org/2000/svg" xmlns:xlink="http://www.w3.org/1999/xlink" x="0px" y="0px"
	 viewBox="0 0 90 125" style="enable-background:new 0 0 90 125;" xml:space="preserve">
<style type="text/css">
	.st0{fill:#020202;}
</style>
<g>
	<rect x="35.2" y="11.3" width="23.1" height="2.6"/>
	<rect x="35.2" y="19" width="46.9" height="2.6"/>
	<rect x="35.2" y="26.7" width="46.9" height="2.6"/>
	<path d="M12.1,29.3h20.5v-18H12.1V29.3z M13.4,12.6h18V28h-18V12.6z"/>
</g>
<g>
	<path class="st0" d="M18.6,41.2c0.1,0.3,0.3,0.4,0.4,0.6c0.3,0.1,0.3,0.1,0.5,0.1c0.3-0.1,0.3-0.3,0.4-0.4c0-0.3,0-0.4-0.1-0.8l0,0
		c-0.1-0.3-0.3-0.4-0.4-0.5c-0.3-0.1-0.3-0.1-0.5-0.1c-0.3,0.1-0.3,0.3-0.4,0.4C18.6,40.7,18.6,40.9,18.6,41.2L18.6,41.2z"/>
	<path class="st0" d="M21.9,37c-5.7,0-10.3,4.5-10.3,10.3s4.5,10.3,10.3,10.3S32.1,53,32.1,47.3S27.6,37,21.9,37z M23.8,39.6
		l0.1-0.3l2.1,0.9L25.7,41l-0.4-0.3l0.1-0.3l-0.8-0.3l-0.3,0.8l0.9,0.3l-0.3,0.4l-0.8-0.4L23.8,42l0.3,0.3L24,42.6l-1-0.4l0.1-0.3
		l0.3,0.1l0.8-1.8L23.8,39.6z M20.8,41.6h0.3l0.1-2.1L21,39.4v-0.3l2.2,0.1V40h-0.4v-0.3h-0.9v0.8h0.9v0.4h-0.9v0.8l0.3,0.1v0.3H21
		L20.8,41.6z M18.1,40.3c0.1-0.3,0.3-0.5,0.8-0.6c0.3-0.1,0.6-0.1,0.9,0c0.3,0.3,0.5,0.4,0.6,0.9l0,0c0.1,0.4,0.1,0.8,0,1
		c-0.1,0.3-0.3,0.5-0.8,0.6c-0.3,0.1-0.6,0.1-0.9,0s-0.5-0.4-0.6-0.9l0,0C18.1,40.9,18.1,40.7,18.1,40.3z M17.2,43.8
		c-0.3,0-0.6-0.3-0.9-0.4v-0.1c-0.3-0.3-0.4-0.6-0.4-0.9c0-0.3,0.1-0.6,0.4-0.9c0.1-0.1,0.3-0.3,0.5-0.3c0.3-0.1,0.3-0.1,0.5-0.1
		l0.4,0.4l-0.4,0.3L17,41.5c-0.1,0-0.1,0-0.3,0s-0.3,0.1-0.3,0.3c-0.3,0.3-0.3,0.3-0.3,0.5c0,0.3,0.1,0.4,0.3,0.6l0.1,0.1
		c0.3,0.3,0.4,0.3,0.6,0.3s0.4,0,0.5-0.3c0.1-0.1,0.1-0.1,0.3-0.3c0-0.1,0.1-0.3,0.1-0.3l-0.4-0.3l0.3-0.3l0.4,0.4
		c0,0.3,0,0.3-0.1,0.5c-0.1,0.3-0.3,0.3-0.3,0.5C17.8,43.7,17.5,43.8,17.2,43.8z M21.9,50.8c-1.9,0-3.5-1.6-3.5-3.5s1.6-3.5,3.5-3.5
		s3.5,1.6,3.5,3.5C25.2,49.2,23.7,50.8,21.9,50.8z M27.7,42.7l-0.3-0.4l0.3-0.3l-0.6-0.6L26.5,42l0.6,0.6l-0.3,0.3L26,42.4l-0.5,0.5
		l0.6,0.6l0.3-0.3l0.3,0.3L26.3,44l-1.6-1.6l0.3-0.3l0.3,0.3l1.4-1.4h-0.4l0.3-0.3l0.3,0.3l1.4,1.3L27.7,42.7z"/>
</g>
<path d="M38.5,53.7c-0.4,0.9-0.8,1.7-1.3,2.6h44.6v-2.6H38.5z"/>
<path d="M39.7,46c0,0.4,0.1,0.8,0.1,1.3c0,0.4,0,0.9-0.1,1.3h42.1V46H39.7z"/>
<path d="M37.2,38.3c0.5,0.8,0.9,1.7,1.3,2.6H58v-2.6H37.2z"/>
<g>
	<rect x="34.8" y="92.3" width="23.1" height="2.6"/>
	<rect x="34.8" y="100" width="46.9" height="2.6"/>
	<rect x="34.8" y="107.6" width="46.9" height="2.6"/>
	<path d="M11.8,110.2h20.5v-18H11.8V110.2z M13,93.5h18v15.4H13V93.5z"/>
</g>
<path d="M11.8,83.2h20.5v-18H11.8V83.2z M13,66.6h18V82H13V66.6z"/>
<g>
	<polygon points="43,80.7 34.8,80.7 34.8,83.2 45.2,83.2 	"/>
	<path d="M59.1,80.7c0.1,0.5,0.1,1,0.1,1.5c0,0.4-0.1,0.7-0.2,1.1h22.8v-2.6H59.1z"/>
</g>
<g>
	<polygon points="36.5,73 34.8,73 34.8,75.5 38.6,75.5 	"/>
	<polygon points="53.4,73 55.6,75.5 81.7,75.5 81.7,73 	"/>
</g>
<polygon points="49,67.8 57.9,67.8 57.9,65.3 46.8,65.3 "/>
<g>
	<path d="M36.3,55.6c1.2-2,2-4.3,2.2-6.8c0.8-9-5.9-16.9-14.8-17.6C14.7,30.3,6.8,37,6,45.9s5.9,16.9,14.8,17.6
		c3.1,0.3,6.1-0.4,8.7-1.7l18.6,21.8c0.6,0.8,1.4,1.2,2.4,1.2c1,0.1,1.8-0.2,2.5-0.8l1.8-1.5c0.8-0.6,1.2-1.4,1.2-2.4
		c0.1-1-0.2-1.8-0.8-2.5L36.3,55.6z M7.2,46c0.7-8.4,8-14.5,16.4-13.8s14.5,8,13.8,16.4s-8,14.5-16.4,13.8
		C12.6,61.7,6.5,54.4,7.2,46z M54,81.7l-1.8,1.5c-0.5,0.4-1,0.6-1.7,0.6s-1.1-0.3-1.6-0.8L30.6,61.3c2-1.2,3.7-2.8,5.1-4.7
		l18.6,21.9c0.4,0.5,0.6,1,0.6,1.7C54.8,80.8,54.5,81.3,54,81.7z"/>
	<path d="M23.4,33.6C15.8,33,9.2,38.5,8.6,46.1C7.9,53.8,13.5,60.4,21.1,61c7.6,0.7,14.2-4.9,14.9-12.5
		C36.6,40.9,31.1,34.3,23.4,33.6z M21.2,59.5C14.5,58.9,9.5,53,10.1,46.3s6.5-11.7,13.2-11.1S35,41.7,34.4,48.4S27.9,60.1,21.2,59.5
		z"/>
</g>
</svg>
