<?xml version="1.0" encoding="utf-8"?>
<!-- Generator: Adobe Illustrator 20.0.0, SVG Export Plug-In . SVG Version: 6.00 Build 0)  -->
<svg version="1.1" id="Layer_1" xmlns="http://www.w3.org/2000/svg" xmlns:xlink="http://www.w3.org/1999/xlink" x="0px" y="0px"
	 viewBox="0 0 90 125" style="enable-background:new 0 0 90 125;" xml:space="preserve">
<style type="text/css">
	.st0{fill:#010101;}
	.st1{fill:#020202;}
</style>
<g>
	<path class="st0" d="M66.5,13.5H24.9c-4.6,0-8.3,3.7-8.3,8.3v77.6c0,4.6,3.7,8.3,8.3,8.3h41.6c4.6,0,8.3-3.7,8.3-8.3V21.9
		C74.9,17.3,71.1,13.5,66.5,13.5z M72.1,99.5c0,3.1-2.5,5.5-5.5,5.5H24.9c-3,0-5.5-2.5-5.5-5.5V21.9c0-3.1,2.5-5.5,5.5-5.5h41.6
		c3.1,0,5.5,2.5,5.5,5.5V99.5z"/>
	<path class="st0" d="M45.7,96.9c-1.9,0-3.5,1.6-3.5,3.5c0,1.9,1.6,3.5,3.5,3.5c1.9,0,3.5-1.6,3.5-3.5
		C49.2,98.5,47.7,96.9,45.7,96.9z M45.7,102.5c-1.1,0-2.1-0.9-2.1-2.1c0-1.1,0.9-2.1,2.1-2.1s2.1,0.9,2.1,2.1
		C47.8,101.6,46.9,102.5,45.7,102.5z"/>
	<g>
		<path d="M69.2,95.1h-47V21.8h47V95.1z M24.2,93.1h43V23.8h-43V93.1z"/>
	</g>
</g>
<g>
	<path class="st1" d="M62.3,40.5v-1.7c0-1.2,0-3-16.6-3S29,37.6,29,38.7v1.7c-0.7,0.3-1.5,1-1.5,2v0.2v3V47c0,1.2,0.9,1.7,1.7,2.1
		l2.8,33.5c0,1.1,0.2,3,13.5,3s13.5-1.9,13.5-3L62,49c0.8-0.3,1.7-1,1.7-2.1v-1.3v-3v-0.2C63.8,41.5,63,40.9,62.3,40.5z M52.8,37.4
		c0.8,0.1,1.7,0.1,2.4,0.2c3.3,0.2,5.5,0.7,5.5,1.2l0,0c0,0.8-6.7,1.5-15.1,1.5c-8.3,0-15.1-0.7-15.1-1.5s6.7-1.5,15.1-1.5
		c1.6,0,3.1,0,4.5,0.1C51.1,37.3,52,37.3,52.8,37.4z M45.7,44.8c-9.1,0-16.6-1-16.6-2.2c0-0.1,0-0.2,0.1-0.2c0-0.1,0.1-0.1,0.2-0.2
		c0,0,0,0,0.1-0.1c0.1-0.1,0.2-0.2,0.4-0.2c0,0.7,0.8,2.2,15.9,2.2s15.8-1.5,15.9-2.2c0.2,0.1,0.3,0.2,0.4,0.2c0,0,0,0,0.1,0.1
		c0.1,0.1,0.1,0.1,0.2,0.2c0.1,0.1,0.1,0.2,0.1,0.2C62.3,43.7,54.8,44.8,45.7,44.8z M34.9,40.6c2.9,0.2,6.7,0.4,10.7,0.4
		c4.1,0,7.9-0.2,10.7-0.4c2.3-0.2,3.7-0.5,4.3-0.8v1.8l0,0v0.2c0,0.9-6.8,1.5-15.1,1.5s-15-0.6-15-1.5v-0.2v-1.8
		C31.3,40.1,32.5,40.3,34.9,40.6z M30.7,48c-0.2-0.1-0.5-0.2-0.7-0.2l0,0c-0.2-0.1-0.3-0.2-0.5-0.2h-0.1c-0.1-0.1-0.2-0.2-0.2-0.2
		c0,0,0,0-0.1-0.1C29,47.1,29,47.1,29,47v-1.3v-2.2c2.8,1.8,13.1,2,16.6,2c3.5,0,13.8-0.2,16.6-2v2.2V47c0,0.1,0,0.2-0.1,0.2
		c0,0,0,0-0.1,0.1c-0.1,0.1-0.2,0.2-0.2,0.2h-0.1c-0.2,0.1-0.2,0.2-0.5,0.2l0,0c-0.2,0.1-0.4,0.2-0.7,0.2c-2.7,0.7-8.3,1.3-15,1.3
		C39,49.3,33.4,48.8,30.7,48z M57.7,82.5c0,0.8-5.4,1.5-12,1.5s-12-0.7-12-1.5l-2.8-33.7c4.2,1.2,12.7,1.3,14.9,1.3
		c2.2,0,10.6-0.1,14.9-1.3L57.7,82.5z"/>
	<path class="st1" d="M43.2,58.1c0.1,0.2,0.2,0.3,0.3,0.5c0.2,0.1,0.2,0.1,0.4,0.1c0.2-0.1,0.2-0.2,0.3-0.3c0-0.2,0-0.3-0.1-0.6l0,0
		c-0.1-0.2-0.2-0.3-0.3-0.4c-0.2-0.1-0.2-0.1-0.4-0.1c-0.2,0.1-0.2,0.2-0.3,0.3C43.2,57.7,43.2,57.9,43.2,58.1L43.2,58.1z"/>
	<path class="st1" d="M45.7,54.9c-4.4,0-7.9,3.5-7.9,7.9s3.5,7.9,7.9,7.9s7.9-3.5,7.9-7.9S50.1,54.9,45.7,54.9z M47.2,56.9l0.1-0.2
		l1.6,0.7l-0.2,0.6l-0.3-0.2l0.1-0.2l-0.6-0.2l-0.2,0.6l0.7,0.2l-0.2,0.3l-0.6-0.3l-0.2,0.6l0.2,0.2l-0.1,0.2l-0.8-0.3l0.1-0.2
		l0.2,0.1l0.6-1.4L47.2,56.9z M44.9,58.4h0.2l0.1-1.6L45,56.7v-0.2l1.7,0.1v0.6h-0.3v-0.2h-0.7v0.6h0.7v0.3h-0.7v0.6l0.2,0.1v0.2
		h-0.9L44.9,58.4z M42.8,57.4c0.1-0.2,0.2-0.4,0.6-0.5c0.2-0.1,0.5-0.1,0.7,0c0.2,0.2,0.4,0.3,0.5,0.7l0,0c0.1,0.3,0.1,0.6,0,0.8
		c-0.1,0.2-0.2,0.4-0.6,0.5c-0.2,0.1-0.5,0.1-0.7,0c-0.2-0.1-0.4-0.3-0.5-0.7l0,0C42.8,57.9,42.8,57.7,42.8,57.4z M42.1,60.1
		c-0.2,0-0.5-0.2-0.7-0.3v-0.1c-0.2-0.2-0.3-0.5-0.3-0.7s0.1-0.5,0.3-0.7c0.1-0.1,0.2-0.2,0.4-0.2c0.2-0.1,0.2-0.1,0.4-0.1l0.3,0.3
		l-0.3,0.2l-0.2-0.2c-0.1,0-0.1,0-0.2,0s-0.2,0.1-0.2,0.2c-0.2,0.2-0.2,0.2-0.2,0.4c0,0.2,0.1,0.3,0.2,0.5l0.1,0.1
		c0.2,0.2,0.3,0.2,0.5,0.2c0.2,0,0.3,0,0.4-0.2c0.1-0.1,0.1-0.1,0.2-0.2c0-0.1,0.1-0.2,0.1-0.2l-0.3-0.2l0.2-0.2l0.3,0.3
		c0,0.2,0,0.2-0.1,0.4c-0.1,0.2-0.2,0.2-0.2,0.4C42.6,60,42.3,60.1,42.1,60.1z M45.7,65.5c-1.5,0-2.7-1.2-2.7-2.7
		c0-1.5,1.2-2.7,2.7-2.7c1.5,0,2.7,1.2,2.7,2.7C48.3,64.3,47.1,65.5,45.7,65.5z M50.2,59.3L50,59l0.2-0.2l-0.5-0.5l-0.4,0.4l0.5,0.5
		l-0.2,0.2L49,59l-0.4,0.4l0.5,0.5l0.2-0.2l0.2,0.2l-0.4,0.4l-1.2-1.2l0.2-0.2l0.2,0.2l1.1-1.1L49.1,58l0.2-0.2l0.2,0.2l1.1,1
		L50.2,59.3z"/>
</g>
</svg>
