<?xml version="1.0" encoding="utf-8"?>
<!-- Generator: Adobe Illustrator 20.0.0, SVG Export Plug-In . SVG Version: 6.00 Build 0)  -->
<svg version="1.1" id="Layer_1" xmlns="http://www.w3.org/2000/svg" xmlns:xlink="http://www.w3.org/1999/xlink" x="0px" y="0px"
	 viewBox="0 0 90 125" style="enable-background:new 0 0 90 125;" xml:space="preserve">
<style type="text/css">
	.st0{fill:#020202;}
</style>
<path d="M45,107.1c-2.6,0-4.8,2.1-4.8,4.8c0,2.6,2.1,4.8,4.8,4.8s4.8-2.1,4.8-4.8C49.8,109.2,47.7,107.1,45,107.1z M45,115
	c-1.8,0-3.2-1.4-3.2-3.2c0-1.8,1.4-3.2,3.2-3.2c1.8,0,3.2,1.4,3.2,3.2C48.2,113.6,46.8,115,45,115z"/>
<g>
	<g>
		<path class="st0" d="M41.9,33.2c0.1,0.3,0.3,0.4,0.4,0.7c0.3,0.1,0.3,0.1,0.6,0.1c0.3-0.1,0.3-0.3,0.4-0.4c0-0.3,0-0.4-0.1-0.8
			l0,0c-0.1-0.3-0.3-0.4-0.4-0.6c-0.3-0.1-0.3-0.1-0.6-0.1c-0.3,0.1-0.3,0.3-0.4,0.4C41.9,32.7,41.9,33,41.9,33.2L41.9,33.2z"/>
		<path class="st0" d="M45.4,28.8c-6.1,0-10.9,4.8-10.9,10.9s4.8,10.9,10.9,10.9s10.9-4.8,10.9-10.9S51.5,28.8,45.4,28.8z
			 M47.5,31.6l0.1-0.3l2.2,1l-0.3,0.8l-0.4-0.3l0.1-0.3l-0.8-0.3l-0.3,0.8l1,0.3l-0.3,0.4L48,33.4l-0.3,0.8l0.3,0.3l-0.1,0.3
			l-1.1-0.4l0.1-0.3l0.3,0.1l0.8-1.9L47.5,31.6z M44.3,33.7l0.3,0l0.1-2.2l-0.3-0.1l0-0.3l2.3,0.1l0,0.8l-0.4,0l0-0.3l-1,0l0,0.8
			l1,0l0,0.4l-1,0l0,0.8l0.3,0.1l0,0.3l-1.2,0L44.3,33.7z M41.4,32.3c0.1-0.3,0.3-0.6,0.8-0.7c0.3-0.1,0.7-0.1,1,0
			c0.3,0.3,0.6,0.4,0.7,1l0,0c0.1,0.4,0.1,0.8,0,1.1c-0.1,0.3-0.3,0.6-0.8,0.7c-0.3,0.1-0.7,0.1-1,0c-0.3-0.1-0.6-0.4-0.7-1l0,0
			C41.4,33,41.4,32.7,41.4,32.3z M40.4,36c-0.3,0-0.7-0.3-1-0.4l0-0.1c-0.3-0.3-0.4-0.7-0.4-1c0-0.3,0.1-0.7,0.4-1
			c0.1-0.1,0.3-0.3,0.6-0.3c0.3-0.1,0.3-0.1,0.6-0.1l0.4,0.4l-0.4,0.3l-0.3-0.3c-0.1,0-0.1,0-0.3,0c-0.1,0-0.3,0.1-0.3,0.3
			c-0.3,0.3-0.3,0.3-0.3,0.6c0,0.3,0.1,0.4,0.3,0.7l0.1,0.1c0.3,0.3,0.4,0.3,0.7,0.3c0.3,0,0.4,0,0.6-0.3c0.1-0.1,0.1-0.1,0.3-0.3
			c0-0.1,0.1-0.3,0.1-0.3l-0.4-0.3l0.3-0.3l0.4,0.4c0,0.3,0,0.3-0.1,0.6c-0.1,0.3-0.3,0.3-0.3,0.6C41.1,35.9,40.7,36,40.4,36z
			 M45.4,43.5c-2.1,0-3.7-1.7-3.7-3.7c0-2.1,1.7-3.7,3.7-3.7c2.1,0,3.7,1.7,3.7,3.7C49,41.8,47.3,43.5,45.4,43.5z M51.6,34.9
			l-0.3-0.4l0.3-0.3l-0.7-0.7l-0.6,0.6l0.7,0.7L50.8,35l-0.8-0.6L49.4,35l0.7,0.7l0.3-0.3l0.3,0.3l-0.6,0.6l-1.7-1.7l0.3-0.3
			l0.3,0.3l1.5-1.5l-0.4,0l0.3-0.3l0.3,0.3l1.5,1.4L51.6,34.9z"/>
	</g>
	<g>
		<path d="M46.7,5.2l-1.8-1.6l-1.7,1.7L43,5.6c-12.9,13.5-17.2,32-13.1,52.2l1.2,5.7L18,79.4l-0.8,1l0.2,1.2L19.8,95l0.4,2.2l2.1,0
			h8.2h1.3l0.8-1.1l6.4-9.4h1.4v7.7V97h2.5h5l2.5,0v-2.7l0-7.7l1,0l6.4,9.4l0.8,1.1h1.3h8.2l2.1,0l0.4-2.2L73,81.6l0.2-1.2l-0.8-1
			l-13-15.9l1-5.1C64.7,36.3,60,17.1,46.7,5.2z M30.5,94.5h-8.2l-2.3-13.4l12.8-15.7l4.5,19.2L30.5,94.5z M47.9,84v10.4h-5V84v-7.7
			c0-3.8,2.3-13.8,2.3-13.8s2.7,10,2.7,13.8L47.9,84L47.9,84z M70.5,81.2l-2.3,13.4h-8.2l-6.6-9.8l4.4-19.3L70.5,81.2z M57.9,57.8
			l-1.2,5.9l0,0L52.2,84l-3,0l0-7.7c0-3.9-2.6-13.7-2.7-14.1l-1.3-4.9L44,62.2c-0.1,0.4-2.4,10.2-2.4,14.1V84h-3.3l-4.8-20.8l0,0
			l-1.2-6c-3-15.2-2.2-34.3,12.5-49.8c0.1-0.1,0.2-0.2,0.3-0.3C50.9,12.5,63.7,27.6,57.9,57.8z"/>
	</g>
</g>
<path d="M62.8,32.5c0.1,0.5,0.2,1.1,0.3,1.6h12.1V104h-60v-22L15,81.1l-0.2-0.9l0.3-0.4V34H27c0.1-0.5,0.2-1.1,0.3-1.6H13.6v73.1
	h63.2V32.5H62.8z"/>
<path d="M76.8,19.8H59.1c0.5,1,0.9,2.1,1.3,3.2h16.4c3.5,0,6.4,2.9,6.4,6.4v82.9c0,3.5-2.9,6.4-6.4,6.4H13.3c-1.7,0-3.3-0.7-4.5-1.9
	c-1.2-1.2-1.9-2.7-1.9-4.5V29.3c0-1.7,0.7-3.3,1.9-4.5c1.2-1.2,2.7-1.9,4.5-1.9h16.6c0.4-1.1,0.8-2.1,1.3-3.2H13.3
	c-5.3,0-9.5,4.3-9.5,9.5v82.9c0,5.3,4.3,9.5,9.5,9.5h63.5c5.3,0,9.5-4.3,9.5-9.5V29.3C86.3,24,82.1,19.8,76.8,19.8z"/>
</svg>
