<?xml version="1.0" encoding="utf-8"?>
<!-- Generator: Adobe Illustrator 20.0.0, SVG Export Plug-In . SVG Version: 6.00 Build 0)  -->
<svg version="1.1" id="Layer_1" xmlns="http://www.w3.org/2000/svg" xmlns:xlink="http://www.w3.org/1999/xlink" x="0px" y="0px"
	 viewBox="0 0 90 125" style="enable-background:new 0 0 90 125;" xml:space="preserve">
<style type="text/css">
	.st0{fill:#010101;}
	.st1{clip-path:url(#SVGID_2_);}
</style>
<g>
	<path class="st0" d="M69.6,8.3H18.9c-5.6,0-10.1,4.6-10.1,10.1v94.7c0,5.6,4.6,10.1,10.1,10.1h50.7c5.6,0,10.1-4.6,10.1-10.1V18.5
		C79.8,12.9,75.2,8.3,69.6,8.3z M76.4,113.2c0,3.7-3,6.8-6.8,6.8H18.9c-3.7,0-6.8-3-6.8-6.8V18.5c0-3.7,3-6.8,6.8-6.8h50.7
		c3.7,0,6.8,3,6.8,6.8V113.2z"/>
	<g>
		<path d="M71.8,22.2v0.6v79.4v0.6h-0.6h-54h-0.6v-0.6V22.8v-0.6h0.6h54H71.8 M72.8,21.2h-1.6h-54h-1.6v1.6v79.4v1.6h1.6h54h1.6
			v-1.6V22.8V21.2L72.8,21.2z"/>
	</g>
	<g>
		<defs>
			<rect id="SVGID_1_" x="13.3" y="53.6" width="57.2" height="48.9"/>
		</defs>
		<clipPath id="SVGID_2_">
			<use xlink:href="#SVGID_1_"  style="overflow:visible;"/>
		</clipPath>
		<g class="st1">
			<path class="st0" d="M59.9,82.4c-0.5,0-1,0-1.6,0.1V77c0-4.8-10.9-7-21-7s-21,2.2-21,7v39.1c0,5.4,13.2,6.8,21,6.8s21-1.4,21-6.8
				v-5.9c0.5,0.1,1,0.1,1.6,0.1c5.1,0,9.3-4.2,9.3-9.3v-9.3C69.2,86.5,65.1,82.4,59.9,82.4z M18.1,76.4c0.2-0.5,0.7-1.1,1.4-1.5
				c0.5-0.3,1.1-0.6,1.8-0.9c1-0.4,2.3-0.8,3.7-1.2c3.4-0.8,7.7-1.3,12.3-1.3c4.7,0,9,0.5,12.3,1.3c1.4,0.3,2.7,0.7,3.7,1.2
				c0.7,0.3,1.3,0.6,1.8,0.9c0.7,0.5,1.2,1,1.4,1.5c0.1,0.2,0.1,0.4,0.1,0.5c0,2.9-8.7,5.4-19.4,5.4C26.7,82.4,18,79.9,18,77
				C18,76.8,18,76.6,18.1,76.4z M37.4,121.4c-10.7,0-19.4-2.3-19.4-5.3V78.8c2.6,2.9,11.2,4.4,19.4,4.4s16.8-1.5,19.4-4.4v3.6h0
				v28.4h0v5.3C56.8,119,48.1,121.4,37.4,121.4z M67.6,101c0,4.2-3.4,7.8-7.8,7.8c-0.8,0-1.6-0.2-2.3-0.4v-3.3
				c0.7,0.4,1.5,0.6,2.3,0.6c2.6,0,4.7-2,4.7-4.7v-9.3c0-2.6-2-4.7-4.7-4.7c-0.9,0-1.7,0.2-2.3,0.6v-3.3c0.7-0.2,1.5-0.4,2.3-0.4
				c4.3,0,7.8,3.4,7.8,7.8V101z M58.3,103.7V89c0.5-0.3,1-0.4,1.6-0.4c1.8,0,3.1,1.3,3.1,3.1v9.3c0,1.8-1.3,3.1-3.1,3.1
				C59.3,104.1,58.8,104,58.3,103.7z"/>
			<path class="st0" d="M37.4,81.3c6,0,17.3-0.9,17.3-4.4c0-3.4-11.3-4.4-17.3-4.4S20.1,73.5,20.1,77C20.1,80.4,31.4,81.3,37.4,81.3
				z M37.4,73.4c9.1,0,16.5,1.6,16.5,3.6c0,0.8-1.4,1.6-3.7,2.2c-3.2-0.8-7.5-1.3-12.7-1.3c-5.3,0-9.6,0.6-12.8,1.3
				c-2.4-0.6-3.8-1.4-3.8-2.3C20.9,75,28.3,73.4,37.4,73.4z"/>
		</g>
		<g class="st1">
			<path class="st0" d="M35.1,93c0.1,0.3,0.3,0.5,0.5,0.7c0.2,0.1,0.4,0.2,0.7,0.1c0.3-0.1,0.4-0.3,0.5-0.5c0.1-0.2,0-0.5-0.1-0.8
				l0,0c-0.1-0.3-0.3-0.5-0.5-0.7c-0.2-0.1-0.4-0.2-0.7-0.1c-0.3,0.1-0.4,0.3-0.5,0.5C35,92.3,35,92.6,35.1,93L35.1,93z"/>
			<path class="st0" d="M38.7,88.2c-6.6,0-11.9,5.2-11.9,11.9c0,6.6,5.2,11.9,11.9,11.9s11.9-5.2,11.9-11.9
				C50.5,93.4,45.3,88.2,38.7,88.2z M41.1,91.1l0.1-0.4l2.4,1l-0.3,0.8l-0.5-0.2l0.1-0.4l-1-0.4l-0.3,0.8l1,0.4l-0.2,0.5l-1-0.4
				l-0.3,0.8l0.3,0.2l-0.1,0.4L40,93.7l0.1-0.4l0.3,0.1l0.9-2.1L41.1,91.1z M37.6,93.3l0.3-0.1L38,91l-0.3-0.1l0-0.4l2.6,0.1l0,0.9
				l-0.5,0l0-0.4l-1,0l0,0.9l1.1,0l0,0.5l-1.1,0l0,0.9l0.3,0.1l0,0.4l-1.3,0L37.6,93.3z M34.5,91.9c0.1-0.4,0.4-0.7,0.8-0.8
				c0.4-0.2,0.8-0.1,1.2,0.1c0.4,0.2,0.6,0.5,0.8,0.9l0,0c0.2,0.4,0.2,0.9,0,1.2c-0.1,0.4-0.4,0.7-0.8,0.8c-0.4,0.2-0.8,0.1-1.1-0.1
				c-0.4-0.2-0.6-0.5-0.8-0.9l0,0C34.3,92.7,34.3,92.3,34.5,91.9z M33.4,95.8c-0.4,0-0.8-0.2-1.1-0.5l-0.1-0.1
				c-0.3-0.3-0.5-0.7-0.5-1.1c0-0.4,0.1-0.8,0.5-1.1c0.2-0.2,0.4-0.3,0.6-0.4c0.2-0.1,0.4-0.1,0.6-0.1l0.4,0.5l-0.3,0.3l-0.3-0.3
				c-0.1,0-0.2,0-0.3,0.1c-0.1,0-0.2,0.1-0.3,0.2c-0.2,0.2-0.3,0.4-0.3,0.7c0,0.3,0.2,0.5,0.4,0.7l0.1,0.1c0.2,0.2,0.5,0.4,0.7,0.4
				c0.3,0,0.5,0,0.7-0.2c0.1-0.1,0.2-0.2,0.2-0.3c0.1-0.1,0.1-0.2,0.1-0.3l-0.2-0.4l0.3-0.3l0.4,0.5c0,0.2,0,0.4-0.1,0.6
				c-0.1,0.2-0.2,0.4-0.4,0.6C34.1,95.7,33.8,95.9,33.4,95.8z M38.7,104c-2.2,0-4-1.8-4-4c0-2.2,1.8-4,4-4c2.2,0,4,1.8,4,4
				C42.6,102.2,40.9,104,38.7,104z M45.6,94.7l-0.4-0.3l0.2-0.3l-0.7-0.7l-0.6,0.6l0.8,0.8L44.6,95l-0.8-0.8l-0.6,0.7l0.7,0.7
				l0.3-0.3l0.4,0.3l-0.6,0.6l-1.8-1.8l0.3-0.3l0.3,0.2l1.6-1.7l-0.2-0.3l0.3-0.3l0.2,0.2l1.6,1.5L45.6,94.7z"/>
		</g>
	</g>
	<g>
		<polygon class="st0" points="51.2,55.4 40.7,61.5 40.7,49.4 		"/>
		<path class="st0" d="M44.2,43.5c-6.6,0-12,5.4-12,12s5.4,12,12,12s12-5.4,12-12S50.8,43.5,44.2,43.5z M44.2,65.3
			c-5.5,0-9.9-4.4-9.9-9.9s4.4-9.9,9.9-9.9s9.9,4.4,9.9,9.9S49.7,65.3,44.2,65.3z"/>
	</g>
</g>
<path class="st0" d="M44.2,107c-2.6,0-4.6,2.1-4.6,4.6s2.1,4.6,4.6,4.6c2.6,0,4.6-2.1,4.6-4.6S46.8,107,44.2,107z M44.2,114.7
	c-1.7,0-3.1-1.4-3.1-3.1c0-1.7,1.4-3.1,3.1-3.1c1.7,0,3.1,1.4,3.1,3.1C47.3,113.3,45.9,114.7,44.2,114.7z"/>
<circle class="st0" cx="44.2" cy="16.8" r="1.5"/>
</svg>
