<?xml version="1.0" encoding="utf-8"?>
<!-- Generator: Adobe Illustrator 20.0.0, SVG Export Plug-In . SVG Version: 6.00 Build 0)  -->
<svg version="1.1" id="Layer_1" xmlns="http://www.w3.org/2000/svg" xmlns:xlink="http://www.w3.org/1999/xlink" x="0px" y="0px"
	 viewBox="0 0 90 125" style="enable-background:new 0 0 90 125;" xml:space="preserve">
<style type="text/css">
	.st0{fill:#010101;}
</style>
<g>
	<path class="st0" d="M45.8,98.8c-2.6,0-4.7,2.1-4.7,4.7c0,2.6,2.1,4.7,4.7,4.7s4.7-2.1,4.7-4.7C50.5,100.9,48.4,98.8,45.8,98.8z
		 M45.8,106.6c-1.7,0-3.1-1.4-3.1-3.1c0-1.7,1.4-3.1,3.1-3.1c1.7,0,3.1,1.4,3.1,3.1C48.9,105.2,47.5,106.6,45.8,106.6z"/>
	<path class="st0" d="M76.8,7.9H14.8c-5.1,0-9.3,4.2-9.3,9.3v86.9c0,5.1,4.2,9.3,9.3,9.3h62.1c5.1,0,9.3-4.2,9.3-9.3V17.2
		C86.2,12.1,82,7.9,76.8,7.9z M83,104.1c0,3.4-2.8,6.2-6.2,6.2H14.8c-1.7,0-3.3-0.7-4.4-1.8s-1.8-2.7-1.8-4.4V17.2
		c0-1.7,0.7-3.3,1.8-4.4s2.7-1.8,4.4-1.8h62.1c3.4,0,6.2,2.8,6.2,6.2V104.1z"/>
	<path class="st0" d="M14.9,97.6h61.7V20.3H14.9V97.6z M16.5,21.9h58.6V96H16.5V21.9z"/>
	<circle class="st0" cx="45.8" cy="15.6" r="1.6"/>
	<g>
		<path class="st0" d="M40.8,36.9c0.2,0.4,0.4,0.8,0.7,1c0.3,0.2,0.6,0.2,0.9,0.1c0.4-0.1,0.6-0.4,0.7-0.7c0.1-0.3,0-0.7-0.1-1.2
			l0-0.1c-0.2-0.4-0.4-0.8-0.7-1c-0.3-0.2-0.6-0.2-1-0.1c-0.4,0.1-0.6,0.4-0.6,0.7C40.6,36,40.6,36.4,40.8,36.9L40.8,36.9z"/>
		<path class="st0" d="M45.8,30.2c-9.3,0-16.6,7.3-16.6,16.6s7.3,16.6,16.6,16.6s16.6-7.3,16.6-16.6S55.1,30.2,45.8,30.2z
			 M49.1,34.3l0.2-0.5l3.3,1.4l-0.5,1.1l-0.6-0.3l0.2-0.5L50.4,35l-0.5,1.1l1.5,0.6l-0.3,0.6l-1.5-0.6l-0.5,1.1l0.4,0.3l-0.2,0.5
			L47.6,38l0.2-0.5l0.5,0.1l1.2-3L49.1,34.3z M44.3,37.4l0.5-0.1l0.1-3.2L44.4,34l0-0.5l3.6,0.1l0,1.2l-0.7,0l0-0.5l-1.5,0l0,1.2
			l1.6,0l0,0.7l-1.6,0l0,1.2l0.5,0.1l0,0.5l-1.9-0.1L44.3,37.4z M39.9,35.4c0.2-0.5,0.6-0.9,1.1-1.1c0.6-0.2,1.1-0.2,1.6,0.1
			c0.5,0.3,0.9,0.7,1.1,1.3l0,0.1c0.2,0.6,0.3,1.2,0.1,1.7c-0.2,0.5-0.6,0.9-1.2,1.1c-0.6,0.2-1.1,0.2-1.6-0.1
			c-0.5-0.3-0.9-0.7-1.1-1.3l0-0.1C39.7,36.5,39.7,35.9,39.9,35.4z M38.4,40.9c-0.6,0-1.1-0.3-1.5-0.8l-0.1-0.1
			c-0.5-0.5-0.7-1-0.7-1.6c0-0.6,0.2-1.1,0.6-1.5c0.3-0.2,0.5-0.4,0.8-0.5c0.3-0.1,0.6-0.1,0.8-0.1l0.6,0.6l-0.5,0.5L38,37.1
			c-0.1,0-0.3,0-0.4,0.1c-0.1,0.1-0.3,0.1-0.4,0.3c-0.3,0.3-0.4,0.6-0.4,0.9c0,0.4,0.2,0.7,0.5,1l0.1,0.1c0.3,0.3,0.7,0.5,1,0.6
			c0.4,0.1,0.7,0,0.9-0.3c0.1-0.1,0.2-0.3,0.3-0.4c0.1-0.1,0.1-0.3,0.1-0.4l-0.3-0.5l0.5-0.5l0.6,0.6c0,0.3,0,0.6-0.2,0.8
			c-0.1,0.3-0.3,0.5-0.6,0.8C39.4,40.8,38.9,41,38.4,40.9z M45.8,52.4c-3.1,0-5.5-2.5-5.5-5.5s2.5-5.5,5.5-5.5s5.5,2.5,5.5,5.5
			S48.9,52.4,45.8,52.4z M55.4,39.3l-0.5-0.5l0.3-0.4l-1-1l-0.8,0.8l1.1,1.1l-0.5,0.5L53,38.7l-0.9,0.9l1,1l0.4-0.4l0.5,0.5
			l-0.9,0.9l-2.6-2.5l0.4-0.4l0.4,0.3l2.2-2.3l-0.3-0.4l0.4-0.4l0.3,0.3l2.2,2.1L55.4,39.3z"/>
	</g>
	<path class="st0" d="M76.7,97.6V77.4c-0.6,0-1.7-0.5-1.7-0.5L61.3,63.1L46.6,77.8l0,0l-6,6.1L26.8,73.5L16.6,83.8
		c0,0-1.2,0.9-1.7,0.8v12.9H76.7z M42,85l9.5-9.6l6.2-3.1l3.6,3.6l3.6-3.6l6.2,3.1l3.1,3.1v16.1H34.6c1.3-0.9,2.1-2.4,2.1-4
		c0-0.1,0-0.2,0-0.2L42,85z M17.5,85.4l9.5-9.6l12.4,9.3l-3.2,3.2c-0.8-1.6-2.4-2.7-4.3-2.7c-2.7,0-4.9,2.2-4.9,4.9
		c0,1.7,0.8,3.1,2.1,4H17.5V85.4z"/>
	<rect x="48.9" y="89.4" class="st0" width="21.7" height="2.2"/>
</g>
</svg>
